<svg width="84" height="23" viewBox="0 0 84 23" fill="none" xmlns="http://www.w3.org/2000/svg">
<path d="M22.969 7.10897C23.319 6.52097 23.781 6.06597 24.355 5.74397C24.943 5.40797 25.636 5.23997 26.434 5.23997V7.71797H25.825C24.887 7.71797 24.173 7.95597 23.683 8.43197C23.207 8.90797 22.969 9.73397 22.969 10.91V17H20.575V5.42897H22.969V7.10897ZM39.2396 10.931C39.2396 11.365 39.2116 11.757 39.1556 12.107H30.3146C30.3846 13.031 30.7276 13.773 31.3436 14.333C31.9596 14.893 32.7156 15.173 33.6116 15.173C34.8996 15.173 35.8096 14.634 36.3416 13.556H38.9246C38.5746 14.62 37.9376 15.495 37.0136 16.181C36.1036 16.853 34.9696 17.189 33.6116 17.189C32.5056 17.189 31.5116 16.944 30.6296 16.454C29.7616 15.95 29.0756 15.25 28.5716 14.354C28.0816 13.444 27.8366 12.394 27.8366 11.204C27.8366 10.014 28.0746 8.97097 28.5506 8.07497C29.0406 7.16497 29.7196 6.46497 30.5876 5.97497C31.4696 5.48497 32.4776 5.23997 33.6116 5.23997C34.7036 5.23997 35.6766 5.47797 36.5306 5.95397C37.3846 6.42997 38.0496 7.10197 38.5256 7.96997C39.0016 8.82397 39.2396 9.81097 39.2396 10.931ZM36.7406 10.175C36.7266 9.29297 36.4116 8.58597 35.7956 8.05397C35.1796 7.52197 34.4166 7.25597 33.5066 7.25597C32.6806 7.25597 31.9736 7.52197 31.3856 8.05397C30.7976 8.57197 30.4476 9.27897 30.3356 10.175H36.7406ZM40.7975 11.162C40.7975 9.99997 41.0355 8.97097 41.5115 8.07497C42.0015 7.17897 42.6595 6.48597 43.4855 5.99597C44.3255 5.49197 45.2565 5.23997 46.2785 5.23997C47.1745 5.23997 47.9655 5.42197 48.6515 5.78597C49.3515 6.14997 49.8905 6.59097 50.2685 7.10897V5.42897H52.6835V22.502H50.2685V15.32C49.8905 15.838 49.3445 16.279 48.6305 16.643C47.9165 17.007 47.1045 17.189 46.1945 17.189C45.2005 17.189 44.2905 16.937 43.4645 16.433C42.6525 15.915 42.0015 15.201 41.5115 14.291C41.0355 13.367 40.7975 12.324 40.7975 11.162ZM50.2685 11.204C50.2685 10.406 50.1005 9.71297 49.7645 9.12497C49.4425 8.53697 49.0155 8.08897 48.4835 7.78097C47.9515 7.47297 47.3775 7.31897 46.7615 7.31897C46.1455 7.31897 45.5715 7.47297 45.0395 7.78097C44.5075 8.07497 44.0735 8.51597 43.7375 9.10397C43.4155 9.67797 43.2545 10.364 43.2545 11.162C43.2545 11.96 43.4155 12.66 43.7375 13.262C44.0735 13.864 44.5075 14.326 45.0395 14.648C45.5855 14.956 46.1595 15.11 46.7615 15.11C47.3775 15.11 47.9515 14.956 48.4835 14.648C49.0155 14.34 49.4425 13.892 49.7645 13.304C50.1005 12.702 50.2685 12.002 50.2685 11.204ZM66.3069 5.42897V17H63.9129V15.635C63.5349 16.111 63.0379 16.489 62.4219 16.769C61.8199 17.035 61.1759 17.168 60.4899 17.168C59.5799 17.168 58.7609 16.979 58.0329 16.601C57.3189 16.223 56.7519 15.663 56.3319 14.921C55.9259 14.179 55.7229 13.283 55.7229 12.233V5.42897H58.0959V11.876C58.0959 12.912 58.3549 13.71 58.8729 14.27C59.3909 14.816 60.0979 15.089 60.9939 15.089C61.8899 15.089 62.5969 14.816 63.1149 14.27C63.6469 13.71 63.9129 12.912 63.9129 11.876V5.42897H66.3069ZM70.6836 3.89597C70.2496 3.89597 69.8856 3.74897 69.5916 3.45497C69.2976 3.16097 69.1506 2.79697 69.1506 2.36297C69.1506 1.92897 69.2976 1.56497 69.5916 1.27097C69.8856 0.976969 70.2496 0.829969 70.6836 0.829969C71.1036 0.829969 71.4606 0.976969 71.7546 1.27097C72.0486 1.56497 72.1956 1.92897 72.1956 2.36297C72.1956 2.79697 72.0486 3.16097 71.7546 3.45497C71.4606 3.74897 71.1036 3.89597 70.6836 3.89597ZM71.8596 5.42897V17H69.4656V5.42897H71.8596ZM77.1237 15.047H82.3737V17H74.3517V15.047L79.6227 7.38197H74.3517V5.42897H82.3737V7.38197L77.1237 15.047Z" fill="black"/>
<path d="M0 3H14V17H11V6.00001H0V3Z" fill="black"/>
<path fill-rule="evenodd" clip-rule="evenodd" d="M5.00003 16.9999C7.76138 16.9999 9.99998 14.7613 9.99998 12C9.99998 9.23857 7.76138 6.99997 5.00003 6.99997C2.23858 6.99997 0 9.23857 0 12C0 14.7613 2.23858 16.9999 5.00003 16.9999ZM5.00003 13.9999C6.10463 13.9999 6.99998 13.1046 6.99998 12C6.99998 10.8954 6.10463 9.99997 5.00003 9.99997C3.89543 9.99997 3.00001 10.8954 3.00001 12C3.00001 13.1046 3.89543 13.9999 5.00003 13.9999Z" fill="black"/>
</svg>

