<svg width="32" height="32" viewBox="0 0 32 32" fill="none" xmlns="http://www.w3.org/2000/svg">
<path d="M6.66669 6.66669H25.3334V25.3334H21.3334V10.6667H6.66669V6.66669Z" fill="black"/>
<path fill-rule="evenodd" clip-rule="evenodd" d="M13.3334 25.3333C17.0152 25.3333 20 22.3485 20 18.6667C20 14.9848 17.0152 12 13.3334 12C9.65146 12 6.66669 14.9848 6.66669 18.6667C6.66669 22.3485 9.65146 25.3333 13.3334 25.3333ZM13.3334 21.3333C14.8062 21.3333 16 20.1395 16 18.6667C16 17.1939 14.8062 16 13.3334 16C11.8606 16 10.6667 17.1939 10.6667 18.6667C10.6667 20.1395 11.8606 21.3333 13.3334 21.3333Z" fill="black"/>
</svg>
