 <svg
      width="84"
      height="23"
      viewBox="0 0 84 23"
      fill="none"
      xmlns="http://www.w3.org/2000/svg"
    >
      <g id="logo">
        <path
          id="text"
          d="M22.969 7.10899C23.319 6.52099 23.7809 6.06599 24.3549 5.74399C24.9429 5.40799 25.636 5.23999 26.434 5.23999V7.71799H25.825C24.887 7.71799 24.173 7.95599 23.683 8.43199C23.207 8.90799 22.969 9.73399 22.969 10.91V17H20.575V5.42899H22.969V7.10899ZM39.2396 10.931C39.2396 11.365 39.2116 11.757 39.1556 12.107H30.3146C30.3846 13.031 30.7275 13.773 31.3435 14.333C31.9595 14.893 32.7155 15.173 33.6115 15.173C34.8995 15.173 35.8095 14.634 36.3415 13.556H38.9245C38.5745 14.62 37.9375 15.495 37.0135 16.181C36.1035 16.853 34.9695 17.189 33.6115 17.189C32.5055 17.189 31.5116 16.944 30.6296 16.454C29.7616 15.95 29.0756 15.25 28.5716 14.354C28.0816 13.444 27.8365 12.394 27.8365 11.204C27.8365 10.014 28.0746 8.97099 28.5506 8.07499C29.0406 7.16499 29.7196 6.46499 30.5876 5.97499C31.4696 5.48499 32.4775 5.23999 33.6115 5.23999C34.7035 5.23999 35.6766 5.47799 36.5306 5.95399C37.3846 6.42999 38.0496 7.10199 38.5256 7.96999C39.0016 8.82399 39.2396 9.81099 39.2396 10.931ZM36.7406 10.175C36.7266 9.29299 36.4116 8.58599 35.7956 8.05399C35.1796 7.52199 34.4165 7.25599 33.5065 7.25599C32.6805 7.25599 31.9735 7.52199 31.3855 8.05399C30.7975 8.57199 30.4476 9.27899 30.3356 10.175H36.7406ZM40.7975 11.162C40.7975 9.99999 41.0355 8.97099 41.5115 8.07499C42.0015 7.17899 42.6595 6.48599 43.4855 5.99599C44.3255 5.49199 45.2565 5.23999 46.2785 5.23999C47.1745 5.23999 47.9655 5.42199 48.6515 5.78599C49.3515 6.14999 49.8905 6.59099 50.2685 7.10899V5.42899H52.6834V22.502H50.2685V15.32C49.8905 15.838 49.3445 16.279 48.6305 16.643C47.9165 17.007 47.1045 17.189 46.1945 17.189C45.2005 17.189 44.2905 16.937 43.4645 16.433C42.6525 15.915 42.0015 15.201 41.5115 14.291C41.0355 13.367 40.7975 12.324 40.7975 11.162ZM50.2685 11.204C50.2685 10.406 50.1005 9.71299 49.7645 9.12499C49.4425 8.53699 49.0155 8.08899 48.4835 7.78099C47.9515 7.47299 47.3775 7.31899 46.7615 7.31899C46.1455 7.31899 45.5715 7.47299 45.0395 7.78099C44.5075 8.07499 44.0734 8.51599 43.7374 9.10399C43.4154 9.67799 43.2545 10.364 43.2545 11.162C43.2545 11.96 43.4154 12.66 43.7374 13.262C44.0734 13.864 44.5075 14.326 45.0395 14.648C45.5855 14.956 46.1595 15.11 46.7615 15.11C47.3775 15.11 47.9515 14.956 48.4835 14.648C49.0155 14.34 49.4425 13.892 49.7645 13.304C50.1005 12.702 50.2685 12.002 50.2685 11.204ZM66.3069 5.42899V17H63.9128V15.635C63.5348 16.111 63.0379 16.489 62.4219 16.769C61.8199 17.035 61.1758 17.168 60.4898 17.168C59.5798 17.168 58.7609 16.979 58.0329 16.601C57.3189 16.223 56.7519 15.663 56.3319 14.921C55.9259 14.179 55.7229 13.283 55.7229 12.233V5.42899H58.0959V11.876C58.0959 12.912 58.3548 13.71 58.8728 14.27C59.3908 14.816 60.0979 15.089 60.9939 15.089C61.8899 15.089 62.5968 14.816 63.1148 14.27C63.6468 13.71 63.9128 12.912 63.9128 11.876V5.42899H66.3069ZM70.6836 3.89599C70.2496 3.89599 69.8855 3.74899 69.5915 3.45499C69.2975 3.16099 69.1505 2.79699 69.1505 2.36299C69.1505 1.92899 69.2975 1.56499 69.5915 1.27099C69.8855 0.976987 70.2496 0.829987 70.6836 0.829987C71.1036 0.829987 71.4606 0.976987 71.7546 1.27099C72.0486 1.56499 72.1956 1.92899 72.1956 2.36299C72.1956 2.79699 72.0486 3.16099 71.7546 3.45499C71.4606 3.74899 71.1036 3.89599 70.6836 3.89599ZM71.8595 5.42899V17H69.4655V5.42899H71.8595ZM77.1237 15.047H82.3737V17H74.3517V15.047L79.6227 7.38199H74.3517V5.42899H82.3737V7.38199L77.1237 15.047Z"
          fill="black"
        />
        <path
          id="shape"
          d="M0 3.00003H14V17.0001H11V6.00004H0V3.00003Z"
          fill="black"
        />
        <path
          id="circle"
          fill-rule="evenodd"
          clip-rule="evenodd"
          d="M5.00003 17C7.76138 17 9.99998 14.7614 9.99998 12C9.99998 9.2386 7.76138 7 5.00003 7C2.23858 7 0 9.2386 0 12C0 14.7614 2.23858 17 5.00003 17ZM5.00003 14C6.10463 14 6.99998 13.1046 6.99998 12C6.99998 10.8954 6.10463 10 5.00003 10C3.89543 10 3.00001 10.8954 3.00001 12C3.00001 13.1046 3.89543 14 5.00003 14Z"
          fill="black"
        />
      </g>
    </svg>
